<svg width="110" height="129" viewBox="0 0 110 129" fill="none" xmlns="http://www.w3.org/2000/svg">
<path fill-rule="evenodd" clip-rule="evenodd" d="M102.418 61.75L2.91801 96.75L0.595215 90.1466L100.095 55.1466L102.418 61.75Z" fill="#5445FF"/>
<path d="M7.38672 107.953V117.047H12.0117C13.2513 117.047 14.3138 116.604 15.1992 115.719C16.0846 114.833 16.5273 113.76 16.5273 112.5C16.5273 111.26 16.0846 110.193 15.1992 109.297C14.3138 108.401 13.2513 107.953 12.0117 107.953H7.38672ZM4.88672 128.75V106.234L7.38672 105.453H11.9648C13.8919 105.453 15.5273 106.141 16.8711 107.516C18.2357 108.901 18.918 110.562 18.918 112.5C18.918 114.458 18.2409 116.12 16.8867 117.484C15.5221 118.859 13.8815 119.547 11.9648 119.547H7.38672V127.656L4.88672 128.75Z" fill="black"/>
<path d="M19.8262 100.115H30.791L29.834 102.303H25.9238V118.039H30.791L29.834 120.227H18.8691L19.8262 118.039H23.7363V102.303H18.8691L19.8262 100.115Z" fill="black"/>
<path d="M32.8242 116V99.3438C32.8242 97.4271 33.5117 95.7917 34.8867 94.4375C36.2617 93.0729 37.9232 92.3906 39.8711 92.3906C41.819 92.3906 43.4805 93.0729 44.8555 94.4375C46.2305 95.7917 46.918 97.4271 46.918 99.3438V114.906L44.418 116V99.2969C44.4076 98.0469 43.9596 96.9844 43.0742 96.1094C42.1784 95.224 41.1107 94.7812 39.8711 94.7812C38.6211 94.7812 37.5482 95.224 36.6523 96.1094C35.7669 96.9844 35.3242 98.0312 35.3242 99.25C35.3242 99.2708 35.3242 99.2865 35.3242 99.2969V114.906L32.8242 116Z" fill="black"/>
<path d="M49.3247 109.688V87.7969L51.8247 86.7031H55.7622C57.3976 86.7031 58.783 87.2708 59.9185 88.4062C61.0539 89.5417 61.6216 90.8281 61.6216 92.2656C61.6216 93.8906 61.0643 95.2708 59.9497 96.4062L59.856 96.5C60.3768 96.8021 60.8664 97.1875 61.3247 97.6562C62.6789 99.0208 63.356 100.682 63.356 102.641C63.356 104.578 62.6737 106.24 61.3091 107.625C59.9653 109 58.3299 109.688 56.4028 109.688H49.3247ZM51.8247 107.188H56.4497C57.6893 107.188 58.7518 106.74 59.6372 105.844C60.5226 104.948 60.9653 103.88 60.9653 102.641C60.9653 101.38 60.5226 100.307 59.6372 99.4219C58.7518 98.5365 57.6893 98.0938 56.4497 98.0938H55.8403H51.8247V107.188ZM55.7935 95.5938C56.856 95.5833 57.6476 95.3073 58.1685 94.7656C58.8039 94.099 59.1216 93.3125 59.1216 92.4062C59.1216 92.3542 59.1216 92.2969 59.1216 92.2344C59.1216 91.4844 58.7882 90.8073 58.1216 90.2031C57.4341 89.5573 56.632 89.224 55.7153 89.2031H51.8247V95.5938H55.7935Z" fill="black"/>
<path d="M65.3398 105.5V88.8438C65.3398 86.9271 66.0273 85.2917 67.4023 83.9375C68.7773 82.5729 70.4388 81.8906 72.3867 81.8906C74.3346 81.8906 75.9961 82.5729 77.3711 83.9375C78.7461 85.2917 79.4336 86.9271 79.4336 88.8438V104.406L76.9336 105.5V94.9531H67.8398V104.406L65.3398 105.5ZM67.8398 92.4531H76.9336V88.7969C76.9232 87.5469 76.4753 86.4844 75.5898 85.6094C74.694 84.724 73.6263 84.2812 72.3867 84.2812C71.1367 84.2812 70.0638 84.724 69.168 85.6094C68.2826 86.4844 67.8398 87.5312 67.8398 88.75V88.7969V92.4531Z" fill="black"/>
<path d="M84.6055 76.2344L87.1055 75.1406V95.9375H98.2305L97.1367 98.4375H84.6055V76.2344Z" fill="black"/>
<path d="M95.5898 70.9844L98.0898 69.8906V90.6875H109.215L108.121 93.1875H95.5898V70.9844Z" fill="black"/>
<path d="M7.96875 35.0625C10 35.2917 11.6615 36.0312 12.9531 37.2812C14.3281 38.6146 15.0156 40.25 15.0156 42.1875V42.2344C15.0156 44.2135 14.3385 45.875 12.9844 47.2188C11.6198 48.5729 9.95833 49.25 8 49.25C6.02083 49.25 4.35938 48.5729 3.01562 47.2188C1.64062 45.8229 0.953125 44.1823 0.953125 42.2969V42.0938L3.45312 41V42.3438C3.45312 43.5938 3.90104 44.6562 4.79688 45.5312C5.69271 46.4167 6.76042 46.8594 8 46.8594C9.26042 46.8594 10.3333 46.4167 11.2188 45.5312C12.1042 44.6354 12.5469 43.5677 12.5469 42.3281C12.5469 41.026 12.1198 39.9688 11.2656 39.1562C10.2865 38.2292 9.21875 37.724 8.0625 37.6406C6.08333 37.4844 4.53125 36.8438 3.40625 35.7188C2.23958 34.5625 1.65625 33.1667 1.65625 31.5312C1.65625 29.8854 2.22917 28.4948 3.375 27.3594C4.52083 26.2135 5.90625 25.6406 7.53125 25.6406C9.17708 25.6406 10.5677 26.2135 11.7031 27.3594C12.8594 28.526 13.4375 29.9115 13.4375 31.5156V31.6719L10.9375 32.7969V31.5625C10.9167 30.5938 10.5833 29.7917 9.9375 29.1562C9.26042 28.4896 8.45833 28.1562 7.53125 28.1562C6.60417 28.1562 5.81771 28.4792 5.17188 29.125C4.50521 29.8021 4.17188 30.6042 4.17188 31.5312C4.17188 32.4583 4.50521 33.2552 5.17188 33.9219C5.79688 34.5469 6.72917 34.9271 7.96875 35.0625Z" fill="black"/>
<path d="M33.0312 27.0938C33.0312 27.0938 33.0312 30.3281 33.0312 36.7969C33.0312 38.7135 32.3438 40.3542 30.9688 41.7188C29.5938 43.0729 27.9323 43.75 25.9844 43.75C24.026 43.75 22.3646 43.0729 21 41.7188C19.625 40.3542 18.9375 38.7135 18.9375 36.7969V27.0938C18.9375 25.1771 19.625 23.5417 21 22.1875C22.375 20.8229 24.0365 20.1406 25.9844 20.1406C27.9323 20.1406 29.5938 20.8229 30.9688 22.1875C32.3438 23.5417 33.0312 25.1771 33.0312 27.0938ZM21.4375 27.0469V36.8438C21.4375 38.0833 21.8802 39.1458 22.7656 40.0312C23.651 40.9167 24.724 41.3594 25.9844 41.3594C27.224 41.3594 28.2917 40.9167 29.1875 40.0312C30.0729 39.1562 30.5208 38.0938 30.5312 36.8438V27.0469C30.5208 25.7969 30.0729 24.7344 29.1875 23.8594C28.2917 22.974 27.224 22.5312 25.9844 22.5312C24.724 22.5312 23.651 22.974 22.7656 23.8594C21.8802 24.7344 21.4375 25.7969 21.4375 27.0469Z" fill="black"/>
<path d="M36.5508 29.7969V14.2344L39.0508 13.1406V29.8438C39.0612 31.0938 39.5091 32.1562 40.3945 33.0312C41.2904 33.9167 42.3581 34.3594 43.5977 34.3594C44.8477 34.3594 45.9206 33.9167 46.8164 33.0312C47.7018 32.1562 48.1445 31.1094 48.1445 29.8906C48.1445 29.8698 48.1445 29.8542 48.1445 29.8438V14.2344L50.6445 13.1406V29.7969C50.6445 31.7135 49.957 33.3542 48.582 34.7188C47.207 36.0729 45.5456 36.75 43.5977 36.75C41.6497 36.75 39.9883 36.0729 38.6133 34.7188C37.2383 33.3542 36.5508 31.7135 36.5508 29.7969Z" fill="black"/>
<path d="M59.5898 30.5V9.70312H52.5586L53.6523 7.20312H69.1211L68.0273 9.70312H62.0898V29.4062L59.5898 30.5Z" fill="black"/>
<path d="M74.3398 23.75V1.23438L76.8398 0.140625V10.7031H85.9336V1.23438L88.4336 0.140625V22.6562L85.9336 23.75V13.2031H76.8398V22.6562L74.3398 23.75Z" fill="black"/>
<path d="M12.3086 64.3125C14.3398 64.5417 16.0013 65.2812 17.293 66.5312C18.668 67.8646 19.3555 69.5 19.3555 71.4375V71.4844C19.3555 73.4635 18.6784 75.125 17.3242 76.4688C15.9596 77.8229 14.2982 78.5 12.3398 78.5C10.3607 78.5 8.69922 77.8229 7.35547 76.4688C5.98047 75.0729 5.29297 73.4323 5.29297 71.5469V71.3438L7.79297 70.25V71.5938C7.79297 72.8438 8.24089 73.9062 9.13672 74.7812C10.0326 75.6667 11.1003 76.1094 12.3398 76.1094C13.6003 76.1094 14.6732 75.6667 15.5586 74.7812C16.444 73.8854 16.8867 72.8177 16.8867 71.5781C16.8867 70.276 16.4596 69.2188 15.6055 68.4062C14.6263 67.4792 13.5586 66.974 12.4023 66.8906C10.4232 66.7344 8.87109 66.0938 7.74609 64.9688C6.57943 63.8125 5.99609 62.4167 5.99609 60.7812C5.99609 59.1354 6.56901 57.7448 7.71484 56.6094C8.86068 55.4635 10.2461 54.8906 11.8711 54.8906C13.5169 54.8906 14.9076 55.4635 16.043 56.6094C17.1992 57.776 17.7773 59.1615 17.7773 60.7656V60.9219L15.2773 62.0469V60.8125C15.2565 59.8438 14.9232 59.0417 14.2773 58.4062C13.6003 57.7396 12.7982 57.4062 11.8711 57.4062C10.944 57.4062 10.1576 57.7292 9.51172 58.375C8.84505 59.0521 8.51172 59.8542 8.51172 60.7812C8.51172 61.7083 8.84505 62.5052 9.51172 63.1719C10.1367 63.7969 11.069 64.1771 12.3086 64.3125Z" fill="black"/>
<path d="M24.0586 48.7344L26.5586 47.6406V68.4375H37.6836L36.5898 70.9375H24.0586V48.7344Z" fill="black"/>
<path d="M51.9028 48.3438C51.9028 48.3438 51.9028 51.5781 51.9028 58.0469C51.9028 59.9635 51.2153 61.6042 49.8403 62.9688C48.4653 64.3229 46.8039 65 44.856 65C42.8976 65 41.2362 64.3229 39.8716 62.9688C38.4966 61.6042 37.8091 59.9635 37.8091 58.0469V48.3438C37.8091 46.4271 38.4966 44.7917 39.8716 43.4375C41.2466 42.0729 42.908 41.3906 44.856 41.3906C46.8039 41.3906 48.4653 42.0729 49.8403 43.4375C51.2153 44.7917 51.9028 46.4271 51.9028 48.3438ZM40.3091 48.2969V58.0938C40.3091 59.3333 40.7518 60.3958 41.6372 61.2812C42.5226 62.1667 43.5955 62.6094 44.856 62.6094C46.0955 62.6094 47.1632 62.1667 48.0591 61.2812C48.9445 60.4062 49.3924 59.3438 49.4028 58.0938V48.2969C49.3924 47.0469 48.9445 45.9844 48.0591 45.1094C47.1632 44.224 46.0955 43.7812 44.856 43.7812C43.5955 43.7812 42.5226 44.224 41.6372 45.1094C40.7518 45.9844 40.3091 47.0469 40.3091 48.2969Z" fill="black"/>
<path d="M61.3867 37.9531V47.0469H66.0117C67.2513 47.0469 68.3138 46.6042 69.1992 45.7188C70.0846 44.8333 70.5273 43.7604 70.5273 42.5C70.5273 41.2604 70.0846 40.1927 69.1992 39.2969C68.3138 38.401 67.2513 37.9531 66.0117 37.9531H61.3867ZM58.8867 58.75V36.2344L61.3867 35.4531H65.9648C67.8919 35.4531 69.5273 36.1406 70.8711 37.5156C72.2357 38.901 72.918 40.5625 72.918 42.5C72.918 44.4583 72.2409 46.1198 70.8867 47.4844C69.5221 48.8594 67.8815 49.5469 65.9648 49.5469H61.3867V57.6562L58.8867 58.75Z" fill="black"/>
<path d="M79.1523 41.9531V49.6875H90.2773L89.1836 52.1875H76.6523V30.2812L79.1523 29.1875L88.2461 29.2031L87.1523 31.7031H79.1523V39.4531H88.2461L87.1523 41.9531H79.1523Z" fill="black"/>
</svg>
